<svg xmlns="http://www.w3.org/2000/svg" width="374.432" height="282.233" viewBox="0 0 374.432 282.233">
  <g id="Group_1" data-name="Group 1" transform="translate(0 -131)">
    <g id="Background" transform="translate(61 214)">
      <path id="Weird_Shape" data-name="Weird Shape" d="M35.974,112.219C55.833,116.769,56.639,95.2,56.629,66.55S60.588,5.046,40.73.5-.01,23.467,0,52.113,16.116,107.669,35.974,112.219Z" transform="translate(42.898 17.301) rotate(49)" fill="rgba(43,68,255,0.6)"/>
      <path id="Weird_Shape-2" data-name="Weird Shape" d="M18.758,59.551c13.674,0,28.758-13.092,28.758-29.776S32.432,0,18.758,0,0,19.092,0,32.776,5.085,59.551,18.758,59.551Z" transform="translate(211.483 126.665)" fill="rgba(255,115,198,0.7)"/>
    </g>
    <g id="undraw_reading_time_gvg0" transform="translate(0 148.1)">
      <path id="Path_1" data-name="Path 1" d="M214.624,620.057S167,598.133,183.729,582.929,214.624,620.057,214.624,620.057Z" transform="translate(-170.989 -395.166)" fill="#e6e6e6"/>
      <path id="Path_2" data-name="Path 2" d="M249.6,593.136s-21.89-71.925,10.344-68.485S249.6,593.136,249.6,593.136Z" transform="translate(-206.798 -363.128)" fill="#e6e6e6"/>
      <path id="Path_3" data-name="Path 3" d="M221.829,671.266l.919,12.031.015.208a55.279,55.279,0,0,0,.284,5.626C224.294,701.4,229.653,707,235.917,707s11.39-5.593,12.637-17.865a55.279,55.279,0,0,0,.284-5.626l.007-.168,0-.04.923-12.031Z" transform="translate(-194.983 -447.637)" fill="#e6e6e6"/>
      <path id="Path_4" data-name="Path 4" d="M250.1,699.637l0,.04-.007.168a55.29,55.29,0,0,1-.284,5.626H224.295a55.28,55.28,0,0,1-.284-5.626l-.015-.208Z" transform="translate(-196.232 -463.977)" fill="#fff"/>
      <path id="Path_5" data-name="Path 5" d="M957.678,649.643s-36.872-16.974-23.919-28.745S957.678,649.643,957.678,649.643Z" transform="translate(-603.417 -417.394)" fill="#e6e6e6"/>
      <path id="Path_6" data-name="Path 6" d="M984.76,628.8s-16.948-55.685,8.008-53.022S984.76,628.8,984.76,628.8Z" transform="translate(-631.141 -392.589)" fill="#e6e6e6"/>
      <path id="Path_7" data-name="Path 7" d="M963.256,689.289l.711,9.315.011.161a42.787,42.787,0,0,0,.22,4.355c.965,9.5,5.115,13.831,9.964,13.831s8.818-4.33,9.784-13.831a42.787,42.787,0,0,0,.22-4.355l.006-.13,0-.031.714-9.315Z" transform="translate(-621.994 -458.017)" fill="#e6e6e6"/>
      <path id="Path_8" data-name="Path 8" d="M985.143,711.255l0,.031-.006.13a42.842,42.842,0,0,1-.22,4.356h-19.75a42.789,42.789,0,0,1-.22-4.356l-.011-.161Z" transform="translate(-622.96 -470.668)" fill="#fff"/>
      <path id="Path_9" data-name="Path 9" d="M444.9,304.29V287.926H442.36V304.29a3.393,3.393,0,1,0,2.544,0Z" transform="translate(-320.773 -226.86)" fill="#e6e6e6"/>
      <path id="Path_10" data-name="Path 10" d="M387.489,429.112H370.1V217.926h-6.785V429.112H345.931A15.691,15.691,0,0,0,330.24,444.8h72.94a15.69,15.69,0,0,0-15.691-15.69Z" transform="translate(-257.421 -186.545)" fill="#e6e6e6"/>
      <path id="Path_11" data-name="Path 11" d="M330.323,206.688h72.869l-4.456-55.7a7.717,7.717,0,0,0-7.653-7.065H342.432a7.717,7.717,0,0,0-7.653,7.065Z" transform="translate(-257.469 -143.926)" fill="#2b44ff"/>
      <path id="Path_27" data-name="Path 27" d="M374.265,610.891H0v-.925H374.432Z" transform="translate(0 -351.298)" fill="#3f3d56"/>
      <path id="Path_28" data-name="Path 28" d="M618.66,235.433a.849.849,0,0,0-.848.848v66.155a.849.849,0,0,0,.848.848h55.129a.849.849,0,0,0,.848-.848V236.281a.849.849,0,0,0-.848-.848Z" transform="translate(-423.042 -196.628)" fill="#e6e6e6"/>
      <path id="Path_29" data-name="Path 29" d="M633.312,305.638h43.679v-54.7H633.312Z" transform="translate(-431.969 -205.555)" fill="#fff"/>
      <path id="Path_30" data-name="Path 30" d="M835.557,276.433a.507.507,0,0,0-.506.506v32.913a.507.507,0,0,0,.506.506h39.5a.507.507,0,0,0,.506-.506V276.939a.507.507,0,0,0-.506-.506Z" transform="translate(-548.157 -220.241)" fill="#e6e6e6"/>
      <path id="Path_31" data-name="Path 31" d="M844.3,285.687v26.077h32.66V285.687Z" transform="translate(-553.487 -225.571)" fill="#fff"/>
      <path id="Path_32" data-name="Path 32" d="M679.166,222.532H663.742a2.116,2.116,0,0,1-1.836-3.181l7.712-13.358.019-.033a2.1,2.1,0,0,1,1.606-1.017h.011c.066-.006.133-.009.2-.009a2.1,2.1,0,0,1,1.836,1.06L681,219.351a2.12,2.12,0,0,1-1.836,3.181Zm-15.85-2.122a.437.437,0,0,0,.058.214.417.417,0,0,0,.367.212h15.425a.416.416,0,0,0,.367-.212.435.435,0,0,0,.058-.214.418.418,0,0,0-.058-.21l-7.712-13.358a.424.424,0,0,0-.735,0L663.374,220.2A.417.417,0,0,0,663.316,220.409Z" transform="translate(-448.271 -179.062)" fill="#e6e6e6"/>
      <circle id="Ellipse_2" data-name="Ellipse 2" cx="1.272" cy="1.272" r="1.272" transform="translate(221.91 27.355)" fill="#e6e6e6"/>
      <path id="Path_33" data-name="Path 33" d="M879.751,265.975h-8.363a1.147,1.147,0,0,1-1-1.724l4.181-7.242.01-.018a1.136,1.136,0,0,1,.871-.551h.006c.036,0,.072,0,.108,0a1.138,1.138,0,0,1,1,.575l4.181,7.242a1.15,1.15,0,0,1-1,1.724Zm-8.594-1.151a.237.237,0,0,0,.032.116.226.226,0,0,0,.2.115h8.363a.226.226,0,0,0,.2-.115.237.237,0,0,0,.032-.116.226.226,0,0,0-.032-.114l-4.181-7.242a.23.23,0,0,0-.4,0l-4.181,7.242a.226.226,0,0,0-.032.114Z" transform="translate(-568.422 -208.722)" fill="#e6e6e6"/>
      <circle id="Ellipse_3" data-name="Ellipse 3" cx="0.69" cy="0.69" r="0.69" transform="translate(306.458 48.515)" fill="#e6e6e6"/>
      <path id="Path_34" data-name="Path 34" d="M632.758,319.815a11.234,11.234,0,0,1,6.472-6.076,11.1,11.1,0,0,1,9.25.576c3.309,1.756,5.955,4.518,9.316,6.2a23.824,23.824,0,0,0,10.511,2.476,23.527,23.527,0,0,0,11.786-3.059.637.637,0,0,0-.642-1.1,22.621,22.621,0,0,1-21.386.392c-3.372-1.768-6.043-4.623-9.478-6.279a12.247,12.247,0,0,0-9.427-.529,12.657,12.657,0,0,0-7.628,7.061c-.309.758.921,1.088,1.227.338Z" transform="translate(-430.915 -240.561)" fill="#e6e6e6"/>
      <path id="Path_35" data-name="Path 35" d="M631.041,353.348a48.43,48.43,0,0,1,21.432.074c6.262,1.452,12.726,4.065,19.182,2.116a11.662,11.662,0,0,0,7.01-5.291c.4-.717-.7-1.359-1.1-.642-2.79,5.045-9.326,5.9-14.489,5.069-3.45-.553-6.774-1.662-10.169-2.456a49.563,49.563,0,0,0-22.206-.1C629.9,352.3,630.242,353.527,631.041,353.348Z" transform="translate(-430.204 -262.203)" fill="#e6e6e6"/>
      <path id="Path_36" data-name="Path 36" d="M629.955,289.106a50.307,50.307,0,0,1,20.373.725c6.232,1.527,12.323,5.015,18.912,4.413a12.183,12.183,0,0,0,8.143-3.735c.542-.61-.355-1.513-.9-.9a10.759,10.759,0,0,1-7.005,3.339,22.263,22.263,0,0,1-8.937-1.2c-3.209-.992-6.326-2.25-9.588-3.07a51.524,51.524,0,0,0-21.338-.8C628.811,288.017,629.153,289.243,629.955,289.106Z" transform="translate(-429.576 -226.398)" fill="#e6e6e6"/>
      <path id="Path_37" data-name="Path 37" d="M857.466,283.194a22.177,22.177,0,0,1,5.819,10.851,21.905,21.905,0,0,1-4.736,18.6c-.527.621.369,1.525.9.9a23.5,23.5,0,0,0,5.385-12.159,23.193,23.193,0,0,0-6.468-19.091C857.791,281.709,856.892,282.609,857.466,283.194Z" transform="translate(-560.96 -223.507)" fill="#e6e6e6"/>
      <path id="Path_38" data-name="Path 38" d="M894,278.108a16.4,16.4,0,0,0-6.389,12.249,20.1,20.1,0,0,0,4.626,13.621,26.486,26.486,0,0,0,6.3,5.684c.687.45,1.325-.651.642-1.1a23.463,23.463,0,0,1-9-10.513,17.012,17.012,0,0,1-.037-13.035,13.928,13.928,0,0,1,4.5-5.81c.653-.479.019-1.584-.642-1.1Z" transform="translate(-578.41 -221.136)" fill="#e6e6e6"/>
      <circle id="Ellipse_4" data-name="Ellipse 4" cx="5.937" cy="5.937" r="5.937" transform="translate(220.214 57.888)" fill="#e6e6e6"/>
    </g>
    <g id="A_Human_Standing" data-name="A Human/Standing" transform="translate(62 131)">
      <g id="Head_Front" data-name="Head/Front" transform="translate(57)">
        <g id="Head" transform="translate(41.77 24.989)">
          <path id="Head-2" data-name="Head" d="M0,57,6.295,26.93c-3.51-4.223-5.887-9.4-5.49-15.2C1.949-4.978,24.647-1.3,29.061,7.132s3.891,29.827-1.815,31.334c-2.276.6-7.123-.871-12.057-3.919L18.286,57Z" transform="translate(0.23 0.011)" fill="#b28b67"/>
        </g>
        <path id="hair" d="M-60.027,18.823a5.909,5.909,0,0,1-1.23-2.288,23.166,23.166,0,0,1-.788-2.6c-.4-1.771-.4-3.808.862-5.184a5.934,5.934,0,0,1,3.933-1.705,7.22,7.22,0,0,1,2.789.354c.888.292,1.654.875,2.515,1.236A11.276,11.276,0,0,1-50.619,3.1,5.513,5.513,0,0,1-46.513.42a8.132,8.132,0,0,1,5,1.008c.389.211.774.431,1.143.681a3.2,3.2,0,0,0,.992.546c.4.095.6-.139.866-.433a6.585,6.585,0,0,1,1.021-.92A6.01,6.01,0,0,1-31.862.333a5.231,5.231,0,0,1,2.295,1.661c.524.688.9,1.778,1.62,2.257.307.2.523-.066.8-.265.419-.3.819-.629,1.244-.92a5.694,5.694,0,0,1,1.933-.875c1.012-.234,2.41-.179,2.7,1.147a5.483,5.483,0,0,1-.01,1.534c-.048.69-.1,1.379-.158,2.067a14.94,14.94,0,0,1-.2,1.541,2.257,2.257,0,0,0-.1,1.058c.146.343.823.148,1.111.16a4.387,4.387,0,0,1,1.671.368A1.8,1.8,0,0,1-17.944,11a1.684,1.684,0,0,1,.028.881,2.629,2.629,0,0,0,.054.9c.766-.378,3.421-1.217,3.755.158a2.152,2.152,0,0,1-.335,1.361A11.8,11.8,0,0,1-15.68,16.19a16.853,16.853,0,0,1-3.3,3.2,2.164,2.164,0,0,1,.564,3.622,2.674,2.674,0,0,1-1.966.571,4.341,4.341,0,0,0-.813-.064,1.942,1.942,0,0,1-.368.124,10.945,10.945,0,0,1-3.015-.383,9.936,9.936,0,0,1-4.6-2.407,1.417,1.417,0,0,0-1.063-.489c-.4,0-.783.113-1.178.123a8.482,8.482,0,0,1-2.958-.825,11.184,11.184,0,0,1-.969,3.939c-.437.963-1.351,1.1-2.248,1.187-2.87.27-5.751-.031-8.624-.027,2.782.63,5.657.889,8.414,1.63,1.246.335.295,1.176-.238,1.759a10.138,10.138,0,0,0-1.982,3.4,5.993,5.993,0,0,0-5.9-2.4c-2.355.6-4.013,3.79-2.507,6.082.874,1.33,2.453,1.844,3.766,2.416-1.025,1.067-1.273,2.642-1.889,3.969a2.839,2.839,0,0,1-1.411,1.622,1.649,1.649,0,0,0-.745.3c-.246.254-.3.539-.619.757a3.485,3.485,0,0,1-4.322-.333,2.827,2.827,0,0,1,.1-3.7c-1.336-.557-3.769-1.274-3.238-3.357-2.894-.192-9.921-4.891-6.037-8.325-2.132-1.206-4.09-4.154-2.721-6.752,1.054-2,3.506-2.9,5.518-3" transform="translate(95.107 11.813)" fill="#191847"/>
      </g>
      <g id="Bottom_Skinny_Jeans_1" data-name="Bottom/Skinny Jeans 1" transform="translate(0 147)">
        <g id="Seat" transform="translate(0 32)">
          <g id="Seat-2" data-name="Seat" transform="translate(43.267)">
            <path id="Seat_Stuff" data-name="Seat Stuff" d="M21.73,0H82.5l7.963,97.654H0Z" fill="#c5cfd6"/>
            <path id="Seat_Stuff-2" data-name="Seat Stuff" d="M21.73,0H40.421L51.608,97.654H0Z" fill="rgba(0,0,0,0.1)"/>
          </g>
        </g>
        <path id="Skin" d="M44.943,111.475c-.787-9.963-2.251-44.452-.787-60.416.618-6.739,1.284-13.149,1.939-18.843C32.047,57.508,9.06,94.509,9.06,94.509L0,90.364s10.672-35.2,17.5-49.7C25.3,24.115,32.606,9.941,35.682,4.948,40.522-2.9,48.945-.164,53.4,4.589,59.876.694,70.747,5.7,70.74,11.269c-.023,16.668-15.217,95.223-16.01,100.189a5.388,5.388,0,0,1-5.406,4.233A4.2,4.2,0,0,1,44.943,111.475Z" transform="translate(141.527 11.757)" fill="#b28b67"/>
        <path id="LegLower" d="M-.083,88.047l4-79.931c2.9-13.82,27.461-7.4,27.453.01-.017,16.816-10.089,74.9-10.094,79.913Z" transform="translate(172.366 6.382) rotate(20)" fill="#1f28cf"/>
        <g id="Right_Shoe" data-name="Right Shoe" transform="translate(148.614 70.092) rotate(30)">
          <path id="shoe" d="M4.474,5.033A2,2,0,0,0,1.908,6.381L0,13.106A64.242,64.242,0,0,0,.9,21H57.3s2.2-7.268-2.538-7.848-7.87-1.047-7.87-1.047L20.68.419a1,1,0,0,0-1.332.532L17.663,5.039s-4.385,2.046-7.127,2.046Z" transform="translate(1 19)" fill="#e4e4e4"/>
        </g>
        <g id="Right_Shoe-2" data-name="Right Shoe" transform="translate(182 100)">
          <path id="shoe-2" data-name="shoe" d="M3.519,4.034A1.573,1.573,0,0,0,1.5,5.1L0,10.392a50.646,50.646,0,0,0,.709,6.217H45.078s1.73-5.724-2-6.18S36.891,9.6,36.891,9.6L16.268.4A.786.786,0,0,0,15.221.82L13.9,4.039S10.446,5.65,8.289,5.65Z" transform="translate(0.787 14.893)" fill="#e4e4e4"/>
        </g>
        <path id="Leg_and_Butt" data-name="Leg and Butt" d="M134.339,28.692c0,20.922-9.925,69.726-9.931,74.333l-21.355.016s4.688-65.321,3.325-66.024-55.893,5.45-72.248,5.45C10.547,42.468.792,27.58,0,0H46.717c9.512,1.019,59.128,11.038,77.554,14.482C132.16,15.956,134.339,22.929,134.339,28.692Z" transform="translate(80.107)" fill="#2b44ff"/>
      </g>
      <g id="Body_Long_Sleeve_1" data-name="Body/Long Sleeve 1" transform="translate(9 65)">
        <path id="Skin-2" data-name="Skin" d="M42.765,40.52l11.994-6.6s2.524-9.616,6.035-9.676c.906-.422.56,1.425.43,3.271-.128,1.819-.047,3.637,1.645,3.289,3.408-.7,11.727-6.9,13.161-5.639,2.12,1.861.23,7.574-2,10.416C69.868,40.9,66.42,42.712,57.9,45.091c-6.683,1.866-14.451,7.478-14.451,7.478ZM0,27.888,27.3,12.917A67.579,67.579,0,0,1,40.726.34c1.347-.563,3.7-.9,1.5,3.009S37.883,11.478,39,12.683c.493.529,1.309.5,2.183.473,1.115-.035,2.324-.072,3.075,1.052q1.339,2-14.339,6.329L10.083,38.723Z" transform="translate(124.795 5.74)" fill="#997659"/>
        <path id="Sleeve" d="M4.338,5.037A67.037,67.037,0,0,0,41.506.019l3.412,12.62c-10.73,7.742-24.964,13.246-36.312,11.12C-.336,22.084-3.2,10.479,4.338,5.037Z" transform="translate(106.425 25.997) rotate(-9)" fill="#2026a2"/>
        <path id="Clothes" d="M26.291,112.208c-9.605-1.25-18.543-2.5-23.735-1.476-8.9-28.946,8.311-40.709,8.325-59.23C10.9,31.22,27.164,0,29.558,0H51.385c1.2,15.482,7.26,32.545,12.233,49.4,15.862,3.605,51.087-8.943,51.087-8.943s8.892,18.416,8.221,26.259c-20.5,10.722-38.074,15.5-52.552,15.817.46,8.6-.586,16.783-4.1,24.259-2.628,5.594-9.9,7.267-18.772,7.266A172.365,172.365,0,0,1,26.291,112.208Z" transform="translate(60.749 0)" fill="#1f28cf"/>
      </g>
    </g>
    <g id="book" transform="translate(-12 -20)">
      <path id="Path_39" data-name="Path 39" d="M380.285,426.984l24.844,29.208L442.4,412.211l-25.18-30.552Z" transform="translate(-141.564 -189.709)" fill="#3f3d56"/>
      <path id="Path_40" data-name="Path 40" d="M601.153,558.277,571.608,534.1c1.679-4.029,9.736-2.686,9.736-2.686l23.127,23.446a12.655,12.655,0,0,1,2.053,2.741h0Z" transform="translate(-306.7 -334.768)" fill="#f2f2f2"/>
      <path id="Path_41" data-name="Path 41" d="M592.409,556.4l-33.574-26.187-37.267,56.4,35.085,23.669c3.357,1.343,6.715-1.007,6.715-1.007L597.612,556.9Z" transform="translate(-296.613 -334.568)" fill="#3f3d56"/>
      <rect id="Rectangle_1" data-name="Rectangle 1" width="0.544" height="26.462" transform="matrix(0.584, -0.812, 0.812, 0.584, 266.094, 204.261)" fill="#2b44ff"/>
      <rect id="Rectangle_2" data-name="Rectangle 2" width="51.122" height="0.544" transform="matrix(0.552, -0.834, 0.834, 0.552, 259.986, 267.677)" fill="#2b44ff"/>
      <rect id="Rectangle_3" data-name="Rectangle 3" width="0.544" height="28.337" transform="translate(233.859 252.599) rotate(-53.656)" fill="#2b44ff"/>
      <rect id="Rectangle_4" data-name="Rectangle 4" width="51.131" height="0.544" transform="translate(233.126 246.521) rotate(-55.162)" fill="#2b44ff"/>
      <rect id="Rectangle_5" data-name="Rectangle 5" width="0.336" height="36.06" transform="translate(271.133 196.566) rotate(-47.455)" fill="#b3b3b3"/>
      <rect id="Rectangle_6" data-name="Rectangle 6" width="0.336" height="37.037" transform="translate(268.925 196.779) rotate(-48.561)" fill="#b3b3b3"/>
      <rect id="Rectangle_7" data-name="Rectangle 7" width="0.336" height="37.524" transform="matrix(0.64, -0.768, 0.768, 0.64, 267.191, 197.274)" fill="#b3b3b3"/>
    </g>
  </g>
</svg>
