<svg xmlns="http://www.w3.org/2000/svg" xmlns:xlink="http://www.w3.org/1999/xlink" width="375.048" height="341.686" viewBox="0 0 375.048 341.686">
  <defs>
    <clipPath id="clip-path">
      <path id="Mask" d="M182.251,337.93a136.7,136.7,0,0,0,131.576-99.51c3.313-11.776,54.7-50.6,54.7-63.439C368.526,99.57,257.727,0,182.251,0S-50.481,305.49,16.019,337.93c39.718,19.375,65.773-43.678,71.071-38.542A136.274,136.274,0,0,0,182.251,337.93Z" transform="translate(0)" fill="none"/>
    </clipPath>
    <clipPath id="clip-path-2">
      <path id="Path" d="M68.561,16c.585-1.684,4.572-6.9-2.529-11.872-1.276-.893-3.384,0-5.21-.567-1.374-.424-1.837-2.34-3.413-2.674C55.776.539,54,2.11,52.149,1.972,51.017,1.887,49.271.125,48.093.03c-2.1-.169-4.014,1.814-6.068,1.942C40.834,2.046,39.452.131,38.27.03c-2.876-.246-5.5,1.093-8.031,1.5C27.9,1.9,26.817,6.687,25.1,7.818c-5.4,3.547-9.631,4.539-14.013,8.18C5.875,20.326,4.878,23.546,2.72,26.43S-.771,39.476.487,45.988c.742,3.841,2.677,14.333,7,18.394C13.4,69.942,25.435,71.589,26.5,70.847c4.947-3.435,16.038-22.436,23.9-29.151C56.19,36.758,64.938,26.43,68.561,16Z" transform="translate(0 0)" fill="#ff9b21"/>
    </clipPath>
  </defs>
  <g id="Group_3" data-name="Group 3" transform="translate(-53.304 -202)">
    <g id="undraw_approve_qwp7" transform="translate(285.469 202)">
      <path id="Path_336" data-name="Path 336" d="M416.472,235.717a5.823,5.823,0,0,0-5.325-3.563H304.862a5.765,5.765,0,0,0-5.761,5.761v134.46a5.765,5.765,0,0,0,5.761,5.762H411.151a5.769,5.769,0,0,0,5.762-5.762V237.915a5.659,5.659,0,0,0-.437-2.2Zm-.843,136.659a4.488,4.488,0,0,1-4.482,4.482H304.863a4.483,4.483,0,0,1-4.482-4.481V237.916a4.488,4.488,0,0,1,4.482-4.482H411.151a4.5,4.5,0,0,1,4.16,2.819,4.962,4.962,0,0,1,.168.506,4.442,4.442,0,0,1,.153,1.157Z" transform="translate(-299.101 -208.549)" fill="#3f3d56"/>
      <path id="Path_337" data-name="Path 337" d="M466.321,295.536H434.306a2.561,2.561,0,0,1,0-5.123h32.015a2.561,2.561,0,1,1,0,5.123Z" transform="translate(-371.13 -240.186)" fill="#3f3d56"/>
      <path id="Path_338" data-name="Path 338" d="M466.321,324.96H434.306a2.561,2.561,0,0,1,0-5.122h32.015a2.561,2.561,0,1,1,0,5.122Z" transform="translate(-371.13 -256.164)" fill="#3f3d56"/>
      <path id="Path_339" data-name="Path 339" d="M370.178,308.145h-23.4a2.884,2.884,0,0,1-2.881-2.882V277.654a2.885,2.885,0,0,1,2.881-2.882h23.4a2.885,2.885,0,0,1,2.881,2.882v27.609A2.885,2.885,0,0,1,370.178,308.145Z" transform="translate(-323.428 -231.692)" fill="#2b44ff"/>
      <path id="Path_340" data-name="Path 340" d="M417.9,385.209H345.549a2.561,2.561,0,0,1,0-5.123H417.9a2.561,2.561,0,0,1,0,5.123Z" transform="translate(-322.932 -288.88)" fill="#ccc"/>
      <path id="Path_341" data-name="Path 341" d="M417.9,414.633H345.549a2.561,2.561,0,1,1,0-5.123H417.9a2.561,2.561,0,0,1,0,5.123Z" transform="translate(-322.932 -304.858)" fill="#ccc"/>
      <path id="Path_342" data-name="Path 342" d="M417.9,444.057H345.549a2.561,2.561,0,0,1,0-5.123H417.9a2.561,2.561,0,0,1,0,5.123Z" transform="translate(-322.932 -320.836)" fill="#ccc"/>
      <path id="Path_343" data-name="Path 343" d="M417.9,473.481H345.549a2.561,2.561,0,1,1,0-5.123H417.9a2.561,2.561,0,0,1,0,5.123Z" transform="translate(-322.932 -336.814)" fill="#ccc"/>
      <path id="Path_344" data-name="Path 344" d="M417.9,502.9H345.549a2.561,2.561,0,1,1,0-5.122H417.9a2.561,2.561,0,0,1,0,5.122Z" transform="translate(-322.932 -352.792)" fill="#ccc"/>
      <circle id="Ellipse_44" data-name="Ellipse 44" cx="24.718" cy="24.718" r="24.718" transform="translate(93.448 0)" fill="#2b44ff"/>
      <path id="Path_395" data-name="Path 395" d="M542.353,232.884a2.564,2.564,0,0,1-1.542-.513l-.028-.021-5.809-4.444a2.581,2.581,0,1,1,3.141-4.1l3.763,2.885,8.891-11.6a2.58,2.58,0,0,1,3.618-.478h0l-.055.077.057-.077a2.583,2.583,0,0,1,.477,3.619l-10.458,13.638a2.582,2.582,0,0,1-2.053,1.007Z" transform="translate(-426.637 -198.738)" fill="#fff"/>
    </g>
    <g id="Human" transform="translate(53.304 202.046)">
      <path id="Background" d="M136.662,0c17.209,0,50.071,9.432,50.071,9.432l-.146,89.859s1.375,4.947,5.143,5.449c1.458.194,2.591-.022,5.888,0,5.769.039,14.909.084,24.069,0,15.412-.141,31.315,0,31.315,0h18.243a1.768,1.768,0,0,0,0,1.952c5.763,6.933,2.078,23.315,2.078,29.85A136.662,136.662,0,1,1,136.662,0Z" transform="translate(45.589 64.846)" fill="#aaddc7"/>
      <path id="Mask-2" data-name="Mask" d="M182.251,337.93a136.7,136.7,0,0,0,131.576-99.51c3.313-11.776,54.7-50.6,54.7-63.439C368.526,99.57,257.727,0,182.251,0S-50.481,305.49,16.019,337.93c39.718,19.375,65.773-43.678,71.071-38.542A136.274,136.274,0,0,0,182.251,337.93Z" transform="translate(0 0)" fill="none"/>
      <g id="Human-2" data-name="Human" transform="translate(0 0)" clip-path="url(#clip-path)">
        <g id="Human-3" data-name="Human" transform="translate(-22.066 -21.676)">
          <g id="Head_Front" data-name="Head/Front" transform="translate(110.953)">
            <g id="Head" transform="translate(73.067 41.909)">
              <path id="Head-2" data-name="Head" d="M0,98.688,11.179,46.627C4.945,39.315.725,30.353,1.43,20.313,3.462-8.618,43.771-2.254,51.611,12.348S58.52,63.989,48.387,66.6c-4.042,1.041-12.651-1.509-21.413-6.785l5.5,38.875Z" transform="translate(0 0)" fill="#784931"/>
            </g>
            <g id="Turban" transform="translate(55.135 30.035)">
              <path id="Path-2" data-name="Path" d="M68.561,16c.585-1.684,4.572-6.9-2.529-11.872-1.276-.893-3.384,0-5.21-.567-1.374-.424-1.837-2.34-3.413-2.674C55.776.539,54,2.11,52.149,1.972,51.017,1.887,49.271.125,48.093.03c-2.1-.169-4.014,1.814-6.068,1.942C40.834,2.046,39.452.131,38.27.03c-2.876-.246-5.5,1.093-8.031,1.5C27.9,1.9,26.817,6.687,25.1,7.818c-5.4,3.547-9.631,4.539-14.013,8.18C5.875,20.326,4.878,23.546,2.72,26.43S-.771,39.476.487,45.988c.742,3.841,2.677,14.333,7,18.394C13.4,69.942,25.435,71.589,26.5,70.847c4.947-3.435,16.038-22.436,23.9-29.151C56.19,36.758,64.938,26.43,68.561,16Z" transform="translate(0 0)" fill="#ff9b21"/>
              <g id="Turban-2" data-name="Turban" transform="translate(0 0)" clip-path="url(#clip-path-2)">
                <path id="Shade" d="M13.791,29.756C17.046,18.223,20.214.42,20.214.42l4-.42S17.593,27.9,13.95,39.077c-2.463,7.551-4.469,13.949-6.194,19.186,3.552-7.86,8.12-17.946,12.252-28.29,4.444-11.129,9.456-28.505,9.456-28.505h4.021s-9.5,27.058-14.3,37.792C14.05,50.766,10.358,59.5,7.416,65.372a317.754,317.754,0,0,0,20.59-34.826c4.6-9.006,10.822-27.58,10.822-27.58l3.742,1.6S33.144,28.073,28.005,37.353C16.837,57.516,6.174,69.682,2.446,73.135c-.645.6-.861.736-.706.431a.147.147,0,0,1-.113-.092,9.783,9.783,0,0,1-.784,1.042c-.3.339-.511.5-.648.5C-1.411,75.019,7.263,52.883,13.791,29.756Z" transform="translate(20.943 -1.996)" fill="rgba(0,0,0,0.2)"/>
              </g>
            </g>
          </g>
          <g id="Bottom_Skinny_Jeans_1" data-name="Bottom/Skinny Jeans 1" transform="translate(0 252.806)">
            <path id="Leg" d="M140.61,0c-25.854,21.081-15.939,206.013-17.664,208.341C121.8,209.892,0,234.7,0,234.7l3.511,14.314S145.99,242,154.29,231.429c11.883-15.141,29.319-169.4,29.319-169.4Z" transform="matrix(0.574, -0.819, 0.819, 0.574, 77.18, 115.181)" fill="#b28b67"/>
            <path id="Pant" d="M0,229.093l6.183,23.055c70.81,8.162,117.483-1.885,133.907-17.512s29.4-168.942,29.4-168.942L123.487,0C61.942,46.434,98.7,198.539,97.129,202.018S58.217,208.234,0,229.093Z" transform="matrix(0.574, -0.819, 0.819, 0.574, 85.392, 101.236)" fill="#2f3676"/>
            <g id="Right_Show" data-name="Right Show" transform="translate(272.734 213.673) rotate(20)">
              <path id="shoe" d="M4.474,5.033A2,2,0,0,0,1.908,6.381L0,13.106A64.242,64.242,0,0,0,.9,21H57.3s2.2-7.268-2.538-7.848-7.87-1.047-7.87-1.047L20.68.419a1,1,0,0,0-1.332.532L17.663,5.039s-4.385,2.046-7.127,2.046Z" transform="translate(1 19)" fill="#e4e4e4"/>
            </g>
            <path id="Leg-2" data-name="Leg" d="M138.833,0,68.816,167.943,0,309.924H16.236L193.868,0Z" transform="translate(37.069)" fill="#997659"/>
            <g id="Left_Shot" data-name="Left Shot" transform="translate(32.474 269.029)">
              <path id="shoe-2" data-name="shoe" d="M6.053,6.687A2.707,2.707,0,0,0,2.582,8.51L0,17.6A86.776,86.776,0,0,0,1.219,28.273H77.536s2.975-9.826-3.434-10.609-10.649-1.415-10.649-1.415L27.982.449a1.354,1.354,0,0,0-1.8.72L23.9,6.7s-5.933,2.766-9.643,2.766Z" transform="translate(1.353 25.803)" fill="#e4e4e4"/>
            </g>
            <path id="Pant-2" data-name="Pant" d="M0,280.429l36.076,6.759C63.97,246.215,180.708,78.21,193.507,0H113.194C70.45,56.538,26.589,238.778,0,280.429Z" transform="translate(43.283 0)" fill="#5c63ab"/>
          </g>
          <g id="Body_Long_Sleeve_1" data-name="Body/Long Sleeve 1" transform="translate(29.768 110.856)">
            <path id="Skin" d="M43.013,157.182c-1.845-3.1-3.942-6.2-10.313-4.619-11.369,2.822-21.01,10.061-31.612.3-1.3-1.2-2.258-4.952,2.187-6.877,11.072-4.8,27.429-13.772,30.082-17.258q5.427-7.131,33.633-81.409l27.728,5.5Q52.89,130.694,49.855,135.367c-4.553,7.009-.3,19.856,1.264,26.62a8.55,8.55,0,0,1-1.93.241C45.851,162.228,44.516,159.706,43.013,157.182ZM265.206,41.391l49.028-21.513Q327.118,7.052,339.116.381c2.392-.76,6.477-.99,2.118,5.372S332.575,19,334.316,21.232,341.1,21,343.1,24.626q1.995,3.626-25.517,8.675L280.861,61.43Z" transform="translate(2.706 63.539)" fill="#b28b67"/>
            <path id="Coat_Back" data-name="Coat Back" d="M0,3.017,11.481,0c27.54,22.384,43.072,80.592,60.676,86.936,16.643,6,38.693-3.144,64.8-15.169l9.867,17.7C124.65,118.086,74.434,145.015,52.168,134.1,16.571,116.644,2.387,44.418,0,3.017Z" transform="matrix(0.996, 0.087, -0.087, 0.996, 173.046, 4.203)" fill="#1f28cf"/>
            <path id="Shirt" d="M0,154.117H103.527c4.731,0,3.839-6.825,3.155-10.269-7.892-39.747-38.7-82.591-38.7-139.17L38.119,0C13.419,39.69,4.878,88.556,0,154.117Z" transform="translate(121.778)" fill="#dde3e9"/>
            <path id="Coat_Front" data-name="Coat Front" d="M0,191.779Q20.967,61.858,121.437,0h11.823s40.212,136.956,22.172,182.507H62.242c1.475-22.222,6.2-45.72,12.677-68.633Q43.262,170.927,21.7,196.026Z" transform="translate(36.533)" fill="#2b44ff"/>
          </g>
        </g>
      </g>
    </g>
  </g>
</svg>
