<svg xmlns="http://www.w3.org/2000/svg" width="353.071" height="353.071" viewBox="0 0 353.071 353.071">
  <g id="glucosemeter" transform="translate(0)" opacity="0.1">
    <path id="Path_1" data-name="Path 1" d="M353.071,176.536a176.575,176.575,0,0,1-153.145,175c-7.654,1.014-15.461-36.679-23.391-36.679-1.207,0-2.414.028-3.613,0-6.689-.131-13.288,37.541-19.778,36.679a176.544,176.544,0,1,1,199.927-175Z" fill="#ffebd2"/>
    <path id="Path_2" data-name="Path 2" d="M268.862,400.71v75.207a178.7,178.7,0,0,1-46.782,0V400.71Z" transform="translate(-68.936 -124.384)" fill="#f9f6f9"/>
    <path id="Path_3" data-name="Path 3" d="M241.858,400.71v76.7a176.485,176.485,0,0,1-19.778-1.5V400.71Z" transform="translate(-68.936 -124.384)" fill="#e2d8ec"/>
    <path id="Path_4" data-name="Path 4" d="M206.929,318.4H179.821A125.573,125.573,0,0,1,54.248,192.826V74.4a62.974,62.974,0,0,1,62.974-62.974H269.529A62.974,62.974,0,0,1,332.5,74.4V192.825A125.576,125.576,0,0,1,206.929,318.4Z" transform="translate(-16.839 -3.546)" fill="#30579d"/>
    <path id="Path_5" data-name="Path 5" d="M208.054,318.392c-.372.007-.745.007-1.124.007H179.822A125.576,125.576,0,0,1,54.247,192.824V74.394A62.978,62.978,0,0,1,117.221,11.42h29.356A62.973,62.973,0,0,0,83.6,74.394V192.824A125.57,125.57,0,0,0,208.054,318.392Z" transform="translate(-16.839 -3.545)" fill="#26457d"/>
    <path id="Path_6" data-name="Path 6" d="M272.029,61.423H145.76a41.514,41.514,0,0,0-41.514,41.514v52.8a41.514,41.514,0,0,0,41.514,41.514H272.028a41.514,41.514,0,0,0,41.514-41.514v-52.8A41.514,41.514,0,0,0,272.029,61.423Z" transform="translate(-32.359 -19.066)" fill="#26457d"/>
    <path id="Path_7" data-name="Path 7" d="M151.968,189.662a27.754,27.754,0,0,1-27.722-27.722v-52.8a27.754,27.754,0,0,1,27.722-27.722H278.236a27.754,27.754,0,0,1,27.722,27.722v52.8a27.754,27.754,0,0,1-27.722,27.722Z" transform="translate(-38.567 -25.274)" fill="#b1e4f9"/>
    <g id="Group_3" data-name="Group 3" transform="translate(96.556 69.012)">
      <g id="Group_1" data-name="Group 1">
        <path id="Path_8" data-name="Path 8" d="M188.656,115.907H172.863a7.915,7.915,0,1,1,0-15.83h15.793a7.915,7.915,0,1,1,0,15.83Z" transform="translate(-147.757 -100.077)" fill="#80b4fb"/>
        <path id="Path_9" data-name="Path 9" d="M188.656,164.256H172.863a7.915,7.915,0,1,1,0-15.83h15.793a7.915,7.915,0,1,1,0,15.83Z" transform="translate(-147.757 -115.085)" fill="#80b4fb"/>
        <path id="Path_10" data-name="Path 10" d="M147.934,145.088a7.915,7.915,0,0,1-7.915-7.915V121.95a7.915,7.915,0,1,1,15.83,0v15.223A7.915,7.915,0,0,1,147.934,145.088Z" transform="translate(-140.019 -104.41)" fill="#80b4fb"/>
        <path id="Path_11" data-name="Path 11" d="M188.656,212.605H172.863a7.915,7.915,0,1,1,0-15.83h15.793a7.915,7.915,0,1,1,0,15.83Z" transform="translate(-147.757 -130.093)" fill="#80b4fb"/>
        <path id="Path_12" data-name="Path 12" d="M188.656,212.605H172.863a7.915,7.915,0,1,1,0-15.83h15.793a7.915,7.915,0,1,1,0,15.83Z" transform="translate(-147.757 -130.093)" fill="#80b4fb"/>
        <path id="Path_13" data-name="Path 13" d="M220.253,194.763a7.915,7.915,0,0,1-7.915-7.915V171.625a7.915,7.915,0,0,1,15.83,0v15.223A7.914,7.914,0,0,1,220.253,194.763Z" transform="translate(-162.467 -119.829)" fill="#80b4fb"/>
      </g>
      <g id="Group_2" data-name="Group 2" transform="translate(94.258)">
        <path id="Path_14" data-name="Path 14" d="M325.343,115.907H309.55a7.915,7.915,0,1,1,0-15.83h15.793a7.915,7.915,0,0,1,0,15.83Z" transform="translate(-284.444 -100.077)" fill="#80b4fb"/>
        <path id="Path_15" data-name="Path 15" d="M325.343,164.256H309.55a7.915,7.915,0,1,1,0-15.83h15.793a7.915,7.915,0,0,1,0,15.83Z" transform="translate(-284.444 -115.085)" fill="#80b4fb"/>
        <path id="Path_16" data-name="Path 16" d="M284.622,145.088a7.916,7.916,0,0,1-7.916-7.915V121.95a7.915,7.915,0,1,1,15.83,0v15.223A7.915,7.915,0,0,1,284.622,145.088Z" transform="translate(-276.706 -104.41)" fill="#80b4fb"/>
        <path id="Path_17" data-name="Path 17" d="M325.343,212.605H309.55a7.915,7.915,0,1,1,0-15.83h15.793a7.915,7.915,0,0,1,0,15.83Z" transform="translate(-284.444 -130.093)" fill="#80b4fb"/>
        <path id="Path_18" data-name="Path 18" d="M284.622,197.263a7.916,7.916,0,0,1-7.916-7.915V174.125a7.915,7.915,0,1,1,15.83,0v15.223A7.915,7.915,0,0,1,284.622,197.263Z" transform="translate(-276.706 -120.605)" fill="#80b4fb"/>
        <path id="Path_19" data-name="Path 19" d="M325.343,212.605H309.55a7.915,7.915,0,1,1,0-15.83h15.793a7.915,7.915,0,0,1,0,15.83Z" transform="translate(-284.444 -130.093)" fill="#80b4fb"/>
        <path id="Path_20" data-name="Path 20" d="M356.94,194.763a7.915,7.915,0,0,1-7.915-7.915V171.625a7.915,7.915,0,1,1,15.83,0v15.223A7.915,7.915,0,0,1,356.94,194.763Z" transform="translate(-299.154 -119.829)" fill="#80b4fb"/>
      </g>
      <path id="Path_21" data-name="Path 21" d="M252.437,196.774a7.915,7.915,0,1,0,7.915,7.915A7.916,7.916,0,0,0,252.437,196.774Z" transform="translate(-172.458 -130.092)" fill="#80b4fb"/>
    </g>
    <path id="Path_22" data-name="Path 22" d="M164.441,355.435h24.8a17.212,17.212,0,0,0,17.213-17.213v-30.7a17.213,17.213,0,0,0-17.213-17.213h-24.8a32.563,32.563,0,1,0,0,65.125Z" transform="translate(-40.936 -90.114)" fill="#f9f6f9"/>
    <path id="Path_23" data-name="Path 23" d="M163.427,345.894a32.482,32.482,0,0,0,23.025,9.537H164.441a32.566,32.566,0,0,1,0-65.132h22.012a32.568,32.568,0,0,0-23.025,55.6Z" transform="translate(-40.936 -90.111)" fill="#e2d8ec"/>
    <path id="Path_24" data-name="Path 24" d="M313.988,355.435h-24.8a17.212,17.212,0,0,1-17.213-17.213v-30.7a17.213,17.213,0,0,1,17.213-17.213h24.8a32.563,32.563,0,1,1,0,65.125Z" transform="translate(-84.422 -90.114)" fill="#f9f6f9"/>
    <g id="Group_4" data-name="Group 4" transform="translate(112.633 200.195)">
      <path id="Path_25" data-name="Path 25" d="M307.527,355.435H289.184a17.212,17.212,0,0,1-17.213-17.213v-30.7a17.208,17.208,0,0,1,17.213-17.213h18.343a17.208,17.208,0,0,0-17.212,17.213v30.7A17.213,17.213,0,0,0,307.527,355.435Z" transform="translate(-197.055 -290.309)" fill="#e2d8ec"/>
      <path id="Path_26" data-name="Path 26" d="M167.731,337.647l13.6,7.854a8.8,8.8,0,0,0,13.2-7.619v-15.71a8.8,8.8,0,0,0-13.2-7.619l-13.6,7.854A8.8,8.8,0,0,0,167.731,337.647Z" transform="translate(-163.332 -297.465)" fill="#e2d8ec"/>
      <path id="Path_27" data-name="Path 27" d="M330.225,337.647l-13.6,7.854a8.8,8.8,0,0,1-13.2-7.619v-15.71a8.8,8.8,0,0,1,13.2-7.619l13.6,7.854A8.8,8.8,0,0,1,330.225,337.647Z" transform="translate(-206.818 -297.465)" fill="#e2d8ec"/>
    </g>
    <g id="Group_5" data-name="Group 5" transform="translate(260.891 14.425)">
      <path id="Path_28" data-name="Path 28" d="M454.06,52.288l-31.37-31.37L391.32,52.288a44.364,44.364,0,1,0,62.741,0Z" transform="translate(-378.326 -20.918)" fill="#da387d"/>
      <path id="Path_29" data-name="Path 29" d="M422.7,128.026a44.363,44.363,0,0,1-31.377-75.732L422.7,20.925l-9.374,31.369c-5.172,17.326-5.172,45.411,0,62.737C415.908,123.694,419.3,128.026,422.7,128.026Z" transform="translate(-378.329 -20.92)" fill="#aa3684"/>
    </g>
  </g>
</svg>
