<svg xmlns="http://www.w3.org/2000/svg" width="173" height="32.81" viewBox="0 0 173 32.81">
  <g id="logo" transform="translate(-138 -42)">
    <g id="glucosemeter" transform="translate(138 42)">
      <path id="Path_1" data-name="Path 1" d="M32.81,16.4A16.409,16.409,0,0,1,18.579,32.667c-.711.094-1.437-3.409-2.174-3.409-.112,0-.224,0-.336,0-.622-.012-1.235,3.489-1.838,3.409A16.406,16.406,0,1,1,32.81,16.4Z" fill="#ffebd2"/>
      <path id="Path_2" data-name="Path 2" d="M226.427,400.71V407.7a16.605,16.605,0,0,1-4.347,0V400.71Z" transform="translate(-207.849 -375.032)" fill="#f9f6f9"/>
      <path id="Path_3" data-name="Path 3" d="M223.918,400.71v7.128a16.4,16.4,0,0,1-1.838-.139V400.71Z" transform="translate(-207.849 -375.032)" fill="#e2d8ec"/>
      <path id="Path_4" data-name="Path 4" d="M68.436,39.95H65.917A11.669,11.669,0,0,1,54.248,28.28V17.275A5.852,5.852,0,0,1,60.1,11.423H74.254a5.852,5.852,0,0,1,5.852,5.852V28.28A11.669,11.669,0,0,1,68.436,39.95Z" transform="translate(-50.772 -10.691)" fill="#30579d"/>
      <path id="Path_5" data-name="Path 5" d="M68.54,39.946H65.916A11.669,11.669,0,0,1,54.247,28.277V17.272A5.852,5.852,0,0,1,60.1,11.42h2.728a5.852,5.852,0,0,0-5.852,5.852V28.277A11.669,11.669,0,0,0,68.54,39.946Z" transform="translate(-50.771 -10.688)" fill="#26457d"/>
      <path id="Path_6" data-name="Path 6" d="M119.838,61.423H108.1a3.858,3.858,0,0,0-3.858,3.858v4.906a3.858,3.858,0,0,0,3.858,3.858h11.734a3.858,3.858,0,0,0,3.858-3.858V65.281a3.858,3.858,0,0,0-3.858-3.858Z" transform="translate(-97.566 -57.487)" fill="#26457d"/>
      <path id="Path_7" data-name="Path 7" d="M126.822,91.48a2.579,2.579,0,0,1-2.576-2.576V84a2.579,2.579,0,0,1,2.576-2.576h11.734A2.579,2.579,0,0,1,141.132,84V88.9a2.579,2.579,0,0,1-2.576,2.576Z" transform="translate(-116.284 -76.204)" fill="#b1e4f9"/>
      <g id="Group_3" data-name="Group 3" transform="translate(8.973 6.413)">
        <g id="Group_1" data-name="Group 1">
          <path id="Path_8" data-name="Path 8" d="M167.151,101.548h-1.468a.736.736,0,1,1,0-1.471h1.468a.736.736,0,1,1,0,1.471Z" transform="translate(-163.35 -100.077)" fill="#80b4fb"/>
          <path id="Path_9" data-name="Path 9" d="M167.151,149.9h-1.468a.736.736,0,1,1,0-1.471h1.468a.736.736,0,1,1,0,1.471Z" transform="translate(-163.35 -145.328)" fill="#80b4fb"/>
          <path id="Path_10" data-name="Path 10" d="M140.755,116.921a.736.736,0,0,1-.736-.736v-1.415a.736.736,0,1,1,1.471,0v1.415A.736.736,0,0,1,140.755,116.921Z" transform="translate(-140.019 -113.141)" fill="#80b4fb"/>
          <path id="Path_11" data-name="Path 11" d="M167.151,198.246h-1.468a.736.736,0,1,1,0-1.471h1.468a.736.736,0,1,1,0,1.471Z" transform="translate(-163.35 -190.578)" fill="#80b4fb"/>
          <path id="Path_12" data-name="Path 12" d="M167.151,198.246h-1.468a.736.736,0,1,1,0-1.471h1.468a.736.736,0,1,1,0,1.471Z" transform="translate(-163.35 -190.578)" fill="#80b4fb"/>
          <path id="Path_13" data-name="Path 13" d="M213.074,166.6a.736.736,0,0,1-.736-.736v-1.415a.736.736,0,1,1,1.471,0v1.415A.735.735,0,0,1,213.074,166.6Z" transform="translate(-207.704 -159.632)" fill="#80b4fb"/>
        </g>
        <g id="Group_2" data-name="Group 2" transform="translate(8.759)">
          <path id="Path_14" data-name="Path 14" d="M303.837,101.548H302.37a.736.736,0,1,1,0-1.471h1.468a.736.736,0,0,1,0,1.471Z" transform="translate(-300.037 -100.077)" fill="#80b4fb"/>
          <path id="Path_15" data-name="Path 15" d="M303.837,149.9H302.37a.736.736,0,1,1,0-1.471h1.468a.736.736,0,0,1,0,1.471Z" transform="translate(-300.037 -145.328)" fill="#80b4fb"/>
          <path id="Path_16" data-name="Path 16" d="M277.442,116.921a.736.736,0,0,1-.736-.736v-1.415a.736.736,0,1,1,1.471,0v1.415A.736.736,0,0,1,277.442,116.921Z" transform="translate(-276.706 -113.141)" fill="#80b4fb"/>
          <path id="Path_17" data-name="Path 17" d="M303.837,198.246H302.37a.736.736,0,1,1,0-1.471h1.468a.736.736,0,0,1,0,1.471Z" transform="translate(-300.037 -190.578)" fill="#80b4fb"/>
          <path id="Path_18" data-name="Path 18" d="M277.442,169.1a.736.736,0,0,1-.736-.736v-1.415a.736.736,0,1,1,1.471,0v1.415A.736.736,0,0,1,277.442,169.1Z" transform="translate(-276.706 -161.972)" fill="#80b4fb"/>
          <path id="Path_19" data-name="Path 19" d="M303.837,198.246H302.37a.736.736,0,1,1,0-1.471h1.468a.736.736,0,0,1,0,1.471Z" transform="translate(-300.037 -190.578)" fill="#80b4fb"/>
          <path id="Path_20" data-name="Path 20" d="M349.761,166.6a.736.736,0,0,1-.736-.736v-1.415a.736.736,0,1,1,1.471,0v1.415A.736.736,0,0,1,349.761,166.6Z" transform="translate(-344.391 -159.632)" fill="#80b4fb"/>
        </g>
        <path id="Path_21" data-name="Path 21" d="M245.258,196.774a.736.736,0,1,0,.736.736A.736.736,0,0,0,245.258,196.774Z" transform="translate(-237.825 -190.577)" fill="#80b4fb"/>
      </g>
      <path id="Path_22" data-name="Path 22" d="M134.9,296.361h2.3a1.6,1.6,0,0,0,1.6-1.6v-2.853a1.6,1.6,0,0,0-1.6-1.6h-2.3a3.026,3.026,0,1,0,0,6.052Z" transform="translate(-123.427 -271.705)" fill="#f9f6f9"/>
      <path id="Path_23" data-name="Path 23" d="M134.81,295.465a3.018,3.018,0,0,0,2.14.886H134.9a3.026,3.026,0,0,1,0-6.053h2.045a3.026,3.026,0,0,0-2.14,5.166Z" transform="translate(-123.427 -271.696)" fill="#e2d8ec"/>
      <path id="Path_24" data-name="Path 24" d="M275.876,296.361h-2.3a1.6,1.6,0,0,1-1.6-1.6v-2.853a1.6,1.6,0,0,1,1.6-1.6h2.3a3.026,3.026,0,1,1,0,6.052Z" transform="translate(-254.543 -271.705)" fill="#f9f6f9"/>
      <g id="Group_4" data-name="Group 4" transform="translate(10.467 18.604)">
        <path id="Path_25" data-name="Path 25" d="M275.275,296.361h-1.7a1.6,1.6,0,0,1-1.6-1.6v-2.853a1.6,1.6,0,0,1,1.6-1.6h1.7a1.6,1.6,0,0,0-1.6,1.6v2.853A1.6,1.6,0,0,0,275.275,296.361Z" transform="translate(-265.009 -290.309)" fill="#e2d8ec"/>
        <path id="Path_26" data-name="Path 26" d="M163.741,315.619l1.264.73a.818.818,0,0,0,1.226-.708v-1.46a.818.818,0,0,0-1.226-.708l-1.264.73A.818.818,0,0,0,163.741,315.619Z" transform="translate(-163.332 -311.885)" fill="#e2d8ec"/>
        <path id="Path_27" data-name="Path 27" d="M305.915,315.619l-1.264.73a.818.818,0,0,1-1.226-.708v-1.46a.818.818,0,0,1,1.226-.708l1.264.73A.818.818,0,0,1,305.915,315.619Z" transform="translate(-294.447 -311.885)" fill="#e2d8ec"/>
      </g>
      <g id="Group_5" data-name="Group 5" transform="translate(24.244 1.34)">
        <path id="Path_28" data-name="Path 28" d="M385.364,23.833l-2.915-2.915-2.915,2.915a4.123,4.123,0,1,0,5.83,0Z" transform="translate(-378.326 -20.918)" fill="#da387d"/>
        <path id="Path_29" data-name="Path 29" d="M382.458,30.878a4.123,4.123,0,0,1-2.916-7.038l2.916-2.915-.871,2.915a11.967,11.967,0,0,0,0,5.83C381.827,30.475,382.142,30.878,382.458,30.878Z" transform="translate(-378.334 -20.925)" fill="#aa3684"/>
      </g>
    </g>
    <text id="Type_Diameters" data-name="Type Diameters" transform="translate(178 63)" fill="#191847" font-size="18" font-family="Arial-BoldMT, Arial" font-weight="700"><tspan x="0" y="0">Type Diameters</tspan></text>
  </g>
</svg>
